<?xml version="1.0" encoding="UTF-8" standalone="no"?>
<!-- Svg Vector Icons : http://www.onlinewebfonts.com/icon -->

<svg
   version="1.1"
   x="0px"
   y="0px"
   viewBox="0 0 1000 1000"
   enable-background="new 0 0 1000 1000"
   xml:space="preserve"
   id="svg35"
   sodipodi:docname="8ad6d86df29ed8747aa49f7f021f6f9f.svg"
   inkscape:version="1.2.2 (732a01da63, 2022-12-09)"
   xmlns:inkscape="http://www.inkscape.org/namespaces/inkscape"
   xmlns:sodipodi="http://sodipodi.sourceforge.net/DTD/sodipodi-0.dtd"
   xmlns="http://www.w3.org/2000/svg"
   xmlns:svg="http://www.w3.org/2000/svg"><defs
   id="defs39" /><sodipodi:namedview
   id="namedview37"
   pagecolor="#ffffff"
   bordercolor="#000000"
   borderopacity="0.25"
   inkscape:showpageshadow="2"
   inkscape:pageopacity="0.0"
   inkscape:pagecheckerboard="0"
   inkscape:deskcolor="#d1d1d1"
   showgrid="false"
   inkscape:zoom="0.806"
   inkscape:cx="500"
   inkscape:cy="500"
   inkscape:window-width="1920"
   inkscape:window-height="1009"
   inkscape:window-x="-8"
   inkscape:window-y="-8"
   inkscape:window-maximized="1"
   inkscape:current-layer="svg35" />
<metadata
   id="metadata25"> Svg Vector Icons : http://www.onlinewebfonts.com/icon </metadata>
<g
   id="g33"
   style="fill:#ffffff"><path
     d="M990,441.8c-0.6,6.6-1.3,13.3-1.8,19.9c-2.8,35.7-11.2,70-24.4,103.3C941.3,621.4,907.2,670,863,711.4C792.4,777.6,708.8,818.2,614.5,838c-33.6,7-67.6,10.7-102,11.6c-2.4,0.1-5.3,1.3-7,3C464.2,895,415.9,928,364.3,956.4c-19.4,10.7-39.3,20.3-59.4,29.7c-22,10.3-45.7-1.5-50.3-24.7c-1.5-7.5,0.2-14.5,2.7-21.5c10-28.2,20-56.4,29.7-84.7c2.1-6,3-12.4,4.8-18.5c1-3.2,0-4.9-2.4-6.8c-24.5-18.9-49.1-37.7-73.3-56.9c-24.7-19.6-50.1-38.6-73.5-59.6c-53.6-48-92.8-106-115.2-174.8c-9.7-29.8-15.3-60.5-16.6-91.9c-0.1-2-0.5-4.1-0.8-6.1c0-7.3,0-14.7,0-22c0.2-1.5,0.6-3.1,0.7-4.6c1.1-11.4,1.7-22.9,3.2-34.2c5.2-40.1,17.4-78.2,35.5-114.4c29.1-58.2,70.3-106.5,121.6-146.1C255.6,54.3,352,20.1,458,12c7.9-0.6,15.8-1.2,23.8-1.9c12.1,0,24.2,0,36.4,0c1.7,0.2,3.4,0.5,5.2,0.7c23.8,2.4,47.7,3.8,71.2,7.5c53.5,8.5,104.5,25.1,152.9,49.7c80.7,41.1,146.4,98.5,192.2,177.4c25.6,44,41.5,91.4,47.5,142.1c1.2,10.4,1.9,20.9,2.8,31.3C990,426.5,990,434.1,990,441.8z M347,892c2.1-1.3,3.5-2.1,4.8-2.9c27.5-16.7,52.4-36.8,76.3-58.3c14.1-12.7,27.8-25.9,41.8-38.6c9.9-9,21.1-14,35-13.9c14.3,0.2,28.7-1.1,42.9-2.4c48.6-4.5,95.4-16.3,140.2-35.6c65.7-28.2,122-68.9,165.2-126.4c46.1-61.4,68.4-130.3,62.4-207.6c-2.7-34-11.2-66.6-25.3-97.5c-30.9-67.7-80.4-118.9-143.2-157.6c-59.1-36.5-123.7-57.3-192.6-64.8c-45.1-4.9-90.1-3.9-134.9,3.5c-52,8.5-101.3,24.9-147.6,50.3c-60.4,33.2-110.3,77.8-145.8,137.4c-25,41.9-39.4,87.3-42.2,136c-2.6,45,5,88.6,20.9,130.7c22.3,59.3,56.4,110.4,105.4,151.2c42.6,35.3,87.8,66.7,136.4,93.2c8.8,4.8,12.7,11.9,13.7,21.4c1.6,14.3-0.6,28.3-3.6,42.2C353.9,865.3,350.4,878.2,347,892z"
     id="path27"
     style="fill:#ffffff" /><path
     d="M500.5,402c-68.1,0-136.2,0-204.3,0c-10,0-19.2-1.9-27.2-8.5c-11.3-9.4-16-24.7-11.7-38.8c4.4-14.2,16.7-24.3,31.4-25.6c2.1-0.2,4.1-0.2,6.2-0.2c137,0,274,0,410.9,0c16.2,0,28.4,6.4,35.8,20.9c11.2,22-4.6,50-29.2,51.8c-3.5,0.3-7,0.4-10.5,0.4C634.8,402,567.7,402,500.5,402z"
     id="path29"
     style="fill:#ffffff" /><path
     d="M500.5,500.2c52.3,0,104.6,0,156.9,0c15.5,0,27.5,6.2,34.8,20.2c11.7,22.3-3.3,50-28.4,52.5c-3.6,0.4-7.3,0.6-11,0.6c-102.6,0-205.1,0-307.7,0c-12,0-22.8-2.9-30.9-12.2c-10.2-11.7-12.5-25.1-6.3-39.2c6.3-14.3,18.1-21.4,33.7-21.8c10.7-0.3,21.4-0.1,32.1-0.1C416,500.2,458.2,500.2,500.5,500.2z"
     id="path31"
     style="fill:#ffffff" /></g>
</svg>
