<?xml version="1.0" encoding="UTF-8" standalone="no"?>
<!-- Generator: Adobe Illustrator 22.1.0, SVG Export Plug-In . SVG Version: 6.00 Build 0)  -->

<svg
   version="1.1"
   id="Layer_1"
   x="0px"
   y="0px"
   width="90px"
   height="90px"
   viewBox="0 0 90 90"
   xml:space="preserve"
   sodipodi:docname="phone.svg"
   inkscape:version="1.2.2 (732a01da63, 2022-12-09)"
   xmlns:inkscape="http://www.inkscape.org/namespaces/inkscape"
   xmlns:sodipodi="http://sodipodi.sourceforge.net/DTD/sodipodi-0.dtd"
   xmlns="http://www.w3.org/2000/svg"
   xmlns:svg="http://www.w3.org/2000/svg"><defs
   id="defs379" /><sodipodi:namedview
   id="namedview377"
   pagecolor="#ffffff"
   bordercolor="#000000"
   borderopacity="0.25"
   inkscape:showpageshadow="2"
   inkscape:pageopacity="0.0"
   inkscape:pagecheckerboard="0"
   inkscape:deskcolor="#d1d1d1"
   showgrid="false"
   inkscape:zoom="9.2111111"
   inkscape:cx="44.945718"
   inkscape:cy="44.945718"
   inkscape:window-width="1920"
   inkscape:window-height="1009"
   inkscape:window-x="-8"
   inkscape:window-y="-8"
   inkscape:window-maximized="1"
   inkscape:current-layer="Layer_1" />
<path
   d="m 36.345632,54.451869 8.12098,7.806054 c 0.727275,0.699072 1.845067,0.856973 2.7508,0.38973 l 9.732334,-5.021973 c 0.719807,-0.371785 1.589698,-0.353842 2.292333,0.04737 l 14.199769,8.099608 c 1.013256,0.577775 1.420948,1.786436 0.946801,2.822842 -1.213369,2.654172 -3.422073,7.518961 -4.299431,9.670004 -0.184433,0.452888 -0.459213,0.867738 -0.841518,1.185693 C 59.784174,87.336202 40.955685,77.72864 26.543856,63.875692 12.129787,50.022026 2.1346192,31.923692 10.337736,22.827155 c 0.331529,-0.367479 0.763115,-0.631604 1.233529,-0.808884 2.237077,-0.843335 7.298877,-2.966386 10.060129,-4.132702 1.078218,-0.455759 2.335641,-0.06388 2.936725,0.910084 l 8.426376,13.649113 c 0.416652,0.675386 0.43532,1.511544 0.04928,2.203437 l -5.224578,9.353485 c -0.486094,0.87061 -0.321822,1.945054 0.405452,2.644127 0,0 8.12098,7.806054 8.12098,7.806054 z"
   id="path358"
   style="stroke-width:0.732067;fill:#ffffff" />
<path
   d="M 81.531966,49.5 H 74.071609 C 74.071609,30.841429 59.011634,15.661915 40.5,15.661915 V 8.1423402 c 22.624777,0 41.031966,18.5532968 41.031966,41.3576598 z"
   id="path360"
   style="stroke-width:0.832212;fill:#ffffff" />
<path
   d="m 70.220145,51.671291 h -9 c 0,-12.682 -10.317,-23 -23,-23 v -9 c 17.645,0 32,14.355 32,32 z"
   id="path362"
   style="fill:#ffffff" />
<g
   id="g364">
</g>
<g
   id="g366">
</g>
<g
   id="g368">
</g>
<g
   id="g370">
</g>
<g
   id="g372">
</g>
<g
   id="g374">
</g>
</svg>
