<?xml version="1.0" encoding="UTF-8" standalone="no"?>
<svg
   viewBox="0 0 50 50"
   width="50px"
   height="50px"
   version="1.1"
   id="svg264"
   sodipodi:docname="telegram.svg"
   inkscape:version="1.2.2 (732a01da63, 2022-12-09)"
   xmlns:inkscape="http://www.inkscape.org/namespaces/inkscape"
   xmlns:sodipodi="http://sodipodi.sourceforge.net/DTD/sodipodi-0.dtd"
   xmlns="http://www.w3.org/2000/svg"
   xmlns:svg="http://www.w3.org/2000/svg">
  <defs
     id="defs268" />
  <sodipodi:namedview
     id="namedview266"
     pagecolor="#ffffff"
     bordercolor="#000000"
     borderopacity="0.25"
     inkscape:showpageshadow="2"
     inkscape:pageopacity="0.0"
     inkscape:pagecheckerboard="0"
     inkscape:deskcolor="#d1d1d1"
     showgrid="false"
     inkscape:zoom="16.58"
     inkscape:cx="24.969843"
     inkscape:cy="24.969843"
     inkscape:window-width="1920"
     inkscape:window-height="1009"
     inkscape:window-x="-8"
     inkscape:window-y="-8"
     inkscape:window-maximized="1"
     inkscape:current-layer="svg264" />
  <path
     d="M 42.298667,7.8587873 C 41.67727,7.3158093 40.701261,7.2381191 39.692112,7.6555975 h -0.0017 C 38.629107,8.0944193 9.6471256,20.903921 8.4672988,21.427261 c -0.2145892,0.07684 -2.0887242,0.797393 -1.8956768,2.402422 0.1723343,1.447088 1.678602,2.046413 1.8625356,2.115565 l 7.3681174,2.599635 c 0.488833,1.676744 2.290885,7.862937 2.689409,9.184525 0.24856,0.823859 0.653711,1.906399 1.363761,2.129226 0.623055,0.247583 1.242795,0.02134 1.643804,-0.303078 l 4.504717,-4.305406 7.272009,5.843843 0.173163,0.106718 c 0.493804,0.225386 0.966894,0.33808 1.418442,0.33808 0.348812,0 0.683539,-0.06744 1.00335,-0.202336 1.089518,-0.461018 1.525325,-1.530753 1.570893,-1.651985 l 5.431844,-29.092864 c 0.331412,-1.5538051 -0.12925,-2.3443673 -0.575,-2.7328187 z M 22.300437,29.584738 19.814848,36.41465 17.329256,27.87726 36.385448,13.363697 Z"
     id="path262"
     style="fill:#ffffff;stroke-width:0.84104" />
</svg>
